<svg xmlns="http://www.w3.org/2000/svg" width="70" height="70" viewBox="0 0 70 70" style="width: 100%; height: 100%;"><desc>Made with illustrio</desc>
  
<g class="base"><g fill="none" fill-rule="evenodd" stroke="none" class="main-fill">
    
    
  </g><g fill="none" transform="translate(24.182 19.09)" stroke="none" class="main-fill">
      <path d="M10.8181818,20.3636364 C13.9764545,20.3636364 16.5454545,17.7946364 16.5454545,14.6363636 L16.5454545,5.72727273 C16.5454545,2.56963636 13.9764545,0 10.8181818,0 C7.66054545,0 5.09090909,2.56963636 5.09090909,5.72727273 L5.09090909,14.6363636 C5.09090909,17.7946364 7.66054545,20.3636364 10.8181818,20.3636364 L10.8181818,20.3636364 Z" fill="none" stroke="none" class="main-fill"></path>
      <path d="M21.6363636,14.6363636 C21.6363636,14.2850909 21.3519091,14 21,14 C20.6480909,14 20.3636364,14.2850909 20.3636364,14.6363636 C20.3636364,19.8997273 16.0815455,24.1818182 10.8181818,24.1818182 C5.55481818,24.1818182 1.27272727,19.8997273 1.27272727,14.6363636 C1.27272727,14.2850909 0.987636364,14 0.636363636,14 C0.285090909,14 0,14.2850909 0,14.6363636 C0,20.3865455 4.51309091,25.0905455 10.1818182,25.4220909 L10.1818182,30.5454545 L5.72727273,30.5454545 C5.376,30.5454545 5.09090909,30.8299091 5.09090909,31.1818182 C5.09090909,31.5337273 5.376,31.8181818 5.72727273,31.8181818 L15.9090909,31.8181818 C16.261,31.8181818 16.5454545,31.5337273 16.5454545,31.1818182 C16.5454545,30.8299091 16.261,30.5454545 15.9090909,30.5454545 L11.4545455,30.5454545 L11.4545455,25.4220909 C17.1232727,25.0905455 21.6363636,20.3865455 21.6363636,14.6363636 L21.6363636,14.6363636 Z" fill="none" stroke="none" class="main-fill"></path>
    </g></g><style>
          .main-fill {fill: #850bff;}
          .main-stroke {stroke: #850bff;}
          .secondary-fill {fill: #EC8094;}
          .secondary-stroke {stroke: #EC8094;}

          .main-fill--darken {fill: #5f00bd;}
          .main-stroke--darken {stroke: #5f00bd;}
          .secondary-fill--darken {fill: #e23d5c;}
          .secondary-stroke--darken {stroke: #e23d5c;}

          .main-fill--darkener {fill: #45008a;}
          .main-stroke--darkener {stroke: #45008a;}
          .secondary-fill--darkener {fill: #ce1f3f;}
          .secondary-stroke--darkener {stroke: #ce1f3f;}
        </style></svg>